<svg width="257" height="184" viewBox="0 0 257 184" fill="none" xmlns="http://www.w3.org/2000/svg">
<path d="M36.542 183.452C31.46 183.452 26.8015 182.544 22.5665 180.729C18.3315 178.874 14.9233 176.152 12.342 172.562C9.76067 168.972 8.42967 164.536 8.349 159.252H17.545C17.545 162.801 18.4122 165.725 20.1465 168.024C21.8808 170.283 24.1798 171.977 27.0435 173.107C29.9072 174.195 33.033 174.74 36.421 174.74C40.0913 174.74 43.2777 174.155 45.98 172.985C48.6823 171.816 50.7595 170.283 52.2115 168.387C53.7038 166.451 54.45 164.334 54.45 162.035C54.45 158.808 53.4618 156.207 51.4855 154.23C49.5092 152.214 46.585 150.58 42.713 149.33L29.282 144.611C22.99 142.352 18.2307 139.771 15.004 136.867C11.7773 133.963 10.164 129.889 10.164 124.646C10.164 118.757 12.4227 113.958 16.94 110.247C21.4977 106.536 27.951 104.681 36.3 104.681C44.044 104.681 50.094 106.476 54.45 110.065C58.806 113.615 61.3067 118.394 61.952 124.404H52.635C52.03 120.895 50.3763 118.172 47.674 116.236C45.012 114.26 41.2207 113.272 36.3 113.272C31.2987 113.272 27.4065 114.381 24.6235 116.599C21.8405 118.818 20.449 121.621 20.449 125.009C20.449 127.792 21.3162 130.01 23.0505 131.664C24.8252 133.277 27.588 134.729 31.339 136.02L47.069 141.465C52.514 143.28 56.8095 145.821 59.9555 149.088C63.1418 152.355 64.735 156.59 64.735 161.793C64.735 165.826 63.646 169.476 61.468 172.743C59.3303 176.01 56.1642 178.612 51.9695 180.548C47.7748 182.484 42.6323 183.452 36.542 183.452Z" fill="white"/>
<path d="M48.72 114.68V106.64H107.4V114.68H80.58L82.68 112.52V182H73.32V112.52L75.42 114.68H48.72Z" fill="white"/>
<path d="M150.12 106.64H163.56L189.48 158.72H188.52L214.44 106.64H227.52V182H218.04V116.36H219.72L192.12 172.52H185.88L158.4 116.72H159.48V182H150.12V106.64Z" fill="white"/>
<path d="M105 182V106.64H151.44V114.68H114.36V140H149.28V148.04H114.36V173.84H151.44V182H105Z" fill="white"/>
<path d="M15.77 82.13C13.91 82.13 12.35 81.59 11.09 80.51C9.89 79.49 9.29 78.02 9.29 76.1C9.29 75.62 9.41 74.9 9.65 73.94C9.95 72.92 10.31 71.99 10.73 71.15C11.21 70.25 11.72 69.8 12.26 69.8C12.62 69.8 12.8 70.04 12.8 70.52C12.8 71.06 12.5 71.75 11.9 72.59C11.3 73.37 11 74.39 11 75.65C11 76.79 11.33 77.66 11.99 78.26C12.65 78.86 13.52 79.16 14.6 79.16C17.36 79.16 20.39 78.56 23.69 77.36C27.05 76.16 30.35 74.57 33.59 72.59C36.83 70.61 39.71 68.42 42.23 66.02C44.81 63.56 46.67 61.07 47.81 58.55C48.23 57.71 48.44 56.93 48.44 56.21C48.44 54.89 47.87 54.08 46.73 53.78C45.59 53.42 44.54 53.24 43.58 53.24C39.92 53.24 36.08 53.45 32.06 53.87C28.04 54.29 24.02 54.5 20 54.5C18.14 54.5 16.34 54.23 14.6 53.69C12.92 53.15 11.51 52.25 10.37 50.99C9.29 49.73 8.75 48.02 8.75 45.86C8.75 43.22 9.59 40.58 11.27 37.94C12.95 35.3 15.05 32.81 17.57 30.47C20.15 28.13 22.82 26.09 25.58 24.35C28.4 22.55 30.89 21.2 33.05 20.3C35.15 19.46 37.22 18.77 39.26 18.23C41.36 17.69 43.52 17.42 45.74 17.42H47C49.22 17.42 51.41 17.75 53.57 18.41C55.73 19.07 57.53 20.18 58.97 21.74C60.41 23.24 61.13 25.28 61.13 27.86C61.13 28.34 61.04 29.15 60.86 30.29C60.74 31.37 60.5 32.39 60.14 33.35C59.78 34.25 59.27 34.7 58.61 34.7C58.31 34.7 58.16 34.52 58.16 34.16C58.16 33.38 58.31 32.6 58.61 31.82C58.91 31.04 59.06 30.26 59.06 29.48C59.06 27.32 58.43 25.55 57.17 24.17C55.91 22.79 54.35 21.77 52.49 21.11C50.63 20.45 48.74 20.12 46.82 20.12C44.42 20.12 41.72 20.57 38.72 21.47C35.72 22.37 32.72 23.63 29.72 25.25C26.72 26.87 23.93 28.79 21.35 31.01C18.83 33.17 16.79 35.51 15.23 38.03C13.67 40.55 12.89 43.16 12.89 45.86C12.89 47.18 13.28 48.32 14.06 49.28C14.9 50.18 15.92 50.87 17.12 51.35C18.38 51.83 19.58 52.07 20.72 52.07C24.74 52.07 28.7 51.77 32.6 51.17C36.56 50.51 40.49 50.18 44.39 50.18C45.53 50.18 46.67 50.33 47.81 50.63C48.95 50.87 49.88 51.38 50.6 52.16C51.38 52.88 51.77 53.93 51.77 55.31C51.77 57.83 50.9 60.38 49.16 62.96C47.42 65.48 45.17 67.91 42.41 70.25C39.65 72.53 36.62 74.57 33.32 76.37C30.08 78.17 26.9 79.58 23.78 80.6C20.72 81.62 18.05 82.13 15.77 82.13ZM66.7754 41.63C66.3554 41.63 65.9654 41.54 65.6054 41.36C65.2454 41.12 65.0654 40.79 65.0654 40.37C65.0654 39.89 65.2754 39.17 65.6954 38.21C66.1154 37.19 66.6554 36.17 67.3154 35.15C67.9754 34.13 68.6654 33.26 69.3854 32.54C70.1654 31.82 70.8554 31.46 71.4554 31.46C71.9354 31.46 72.1754 31.76 72.1754 32.36C72.1754 33.08 71.7854 33.65 71.0054 34.07C70.5254 34.37 70.1054 34.94 69.7454 35.78C69.4454 36.62 69.1754 37.49 68.9354 38.39C68.7554 39.29 68.5754 40.01 68.3954 40.55C68.2154 41.27 67.6754 41.63 66.7754 41.63ZM64.9754 76.1C63.5954 76.1 62.5754 75.53 61.9154 74.39C61.2554 73.19 60.8354 71.84 60.6554 70.34C60.4754 68.78 60.3854 67.52 60.3854 66.56C60.3854 65.96 60.4454 64.85 60.5654 63.23C60.7454 61.61 60.9554 59.81 61.1954 57.83C61.4954 55.79 61.8254 53.81 62.1854 51.89C62.6054 49.97 63.0854 48.38 63.6254 47.12C64.1654 45.86 64.7354 45.23 65.3354 45.23C65.8154 45.23 66.2354 45.38 66.5954 45.68C66.9554 45.98 67.1354 46.37 67.1354 46.85C67.1354 47.57 66.9254 48.71 66.5054 50.27C66.0854 51.83 65.5754 53.6 64.9754 55.58C64.4354 57.56 63.9254 59.57 63.4454 61.61C63.0254 63.59 62.8154 65.39 62.8154 67.01C62.8154 67.43 62.8454 68.15 62.9054 69.17C63.0254 70.19 63.2354 71.15 63.5354 72.05C63.8354 72.89 64.3154 73.31 64.9754 73.31C65.8754 73.31 66.8654 72.65 67.9454 71.33C69.0254 70.01 70.1054 68.39 71.1854 66.47C72.3254 64.49 73.3754 62.54 74.3354 60.62C75.2954 58.64 76.1054 56.99 76.7654 55.67C77.4254 54.35 77.8754 53.69 78.1154 53.69C78.4154 53.69 78.5954 53.81 78.6554 54.05C78.7754 54.23 78.8354 54.44 78.8354 54.68C78.8354 55.46 78.5054 56.72 77.8454 58.46C77.1854 60.14 76.3154 62 75.2354 64.04C74.1554 66.02 72.9854 67.94 71.7254 69.8C70.4654 71.6 69.2354 73.1 68.0354 74.3C66.8354 75.5 65.8154 76.1 64.9754 76.1ZM77.8025 78.26C77.2625 78.26 76.9025 78.08 76.7225 77.72C76.5425 77.36 76.4525 76.97 76.4525 76.55V76.37C76.4525 73.13 76.6925 70.1 77.1725 67.28C77.6525 64.46 78.1025 61.61 78.5225 58.73C79.0025 55.79 79.2425 52.58 79.2425 49.1C79.2425 48.14 79.1825 47.03 79.0625 45.77C79.0025 44.45 78.7925 43.16 78.4325 41.9C78.1325 40.64 77.6525 39.65 76.9925 38.93C76.7525 38.69 76.6325 38.39 76.6325 38.03C76.6325 37.49 76.8725 37.01 77.3525 36.59C77.8325 36.17 78.3425 35.93 78.8825 35.87L79.6925 36.23C80.4125 36.89 80.9225 38.06 81.2225 39.74C81.5225 41.36 81.7025 43.01 81.7625 44.69C81.8225 46.37 81.8525 47.69 81.8525 48.65C81.8525 49.97 81.8225 51.29 81.7625 52.61C81.7025 53.93 81.6125 55.28 81.4925 56.66C81.7925 55.88 82.2125 54.89 82.7525 53.69C83.2925 52.43 83.9225 51.2 84.6425 50C85.4225 48.74 86.2325 47.69 87.0725 46.85C87.9725 46.01 88.9325 45.59 89.9525 45.59C90.9725 45.59 91.7525 46.16 92.2925 47.3C92.8325 48.38 93.1925 49.73 93.3725 51.35C93.6125 52.97 93.7625 54.53 93.8225 56.03C93.8825 57.47 93.9125 58.55 93.9125 59.27C94.2725 58.37 94.8425 57.08 95.6225 55.4C96.4625 53.72 97.4225 51.89 98.5025 49.91C99.6425 47.93 100.843 46.04 102.103 44.24C103.363 42.44 104.593 40.97 105.793 39.83C106.993 38.63 108.103 38.03 109.123 38.03C109.963 38.03 110.473 38.48 110.653 39.38C110.893 40.28 111.013 41.03 111.013 41.63C111.013 44.03 110.773 46.46 110.293 48.92C109.873 51.38 109.423 53.87 108.943 56.39C108.523 58.91 108.313 61.46 108.313 64.04C108.313 64.34 108.313 65 108.313 66.02C108.373 67.04 108.493 68 108.673 68.9C108.913 69.74 109.303 70.16 109.843 70.16C110.743 70.16 111.673 69.71 112.633 68.81C113.593 67.91 114.463 66.89 115.243 65.75C116.083 64.55 116.773 63.5 117.312 62.6C117.913 61.64 118.303 61.16 118.483 61.16C118.723 61.4 118.843 61.7 118.843 62.06C118.843 62.66 118.513 63.56 117.853 64.76C117.193 65.96 116.353 67.19 115.333 68.45C114.373 69.71 113.383 70.79 112.363 71.69C111.343 72.53 110.503 72.95 109.843 72.95C108.703 72.95 107.803 72.38 107.143 71.24C106.543 70.1 106.123 68.81 105.883 67.37C105.703 65.93 105.613 64.82 105.613 64.04C105.613 61.7 105.763 59.39 106.063 57.11C106.363 54.77 106.723 52.46 107.143 50.18C107.383 48.98 107.683 47.72 108.043 46.4C108.463 45.08 108.673 43.82 108.673 42.62C108.673 42.26 108.553 41.9 108.313 41.54L108.133 41.45C107.773 41.45 107.293 41.81 106.693 42.53C106.093 43.19 105.523 43.91 104.983 44.69C104.503 45.47 104.143 46.01 103.903 46.31C101.623 49.55 99.7925 52.91 98.4125 56.39C97.0325 59.81 95.4725 63.29 93.7325 66.83C93.6125 67.07 93.4325 67.31 93.1925 67.55C93.0125 67.79 92.7725 67.91 92.4725 67.91C91.8725 67.91 91.4525 67.34 91.2125 66.2C91.0325 65 90.9425 63.65 90.9425 62.15C90.9425 60.77 90.9725 59.48 91.0325 58.28C91.1525 57.02 91.2125 56.15 91.2125 55.67C91.2125 55.43 91.1825 54.92 91.1225 54.14C91.1225 53.36 91.0625 52.52 90.9425 51.62C90.8825 50.72 90.7625 49.94 90.5825 49.28C90.4625 48.62 90.2525 48.29 89.9525 48.29C89.3525 48.29 88.8725 48.53 88.5125 49.01C88.2125 49.49 87.9125 49.97 87.6125 50.45C85.8725 53.39 84.4625 56.42 83.3825 59.54C82.4225 62.42 81.7325 65.39 81.3125 68.45C80.8925 71.45 80.1725 74.36 79.1525 77.18C78.9725 77.9 78.5225 78.26 77.8025 78.26ZM125.605 100.22C124.465 100.22 123.505 99.71 122.725 98.69C121.945 97.67 121.345 96.35 120.925 94.73C120.505 93.17 120.175 91.52 119.935 89.78C119.755 88.1 119.635 86.51 119.575 85.01C119.515 83.57 119.485 82.46 119.485 81.68C119.485 77.54 119.785 73.28 120.385 68.9C120.985 64.52 121.765 60.17 122.725 55.85C123.685 51.47 124.705 47.33 125.785 43.43C125.305 43.31 124.945 42.98 124.705 42.44C124.525 41.84 124.435 41.33 124.435 40.91C124.435 39.83 124.795 39.29 125.515 39.29C125.935 39.29 126.415 39.38 126.955 39.56C127.135 39.14 127.315 38.69 127.495 38.21C127.735 37.67 128.125 37.4 128.665 37.4C129.025 37.4 129.355 37.52 129.655 37.76C129.955 38 130.105 38.33 130.105 38.75C130.105 38.99 130.015 39.32 129.835 39.74C129.715 40.1 129.595 40.4 129.475 40.64C131.755 41.96 133.855 43.61 135.775 45.59C137.755 47.51 138.895 49.88 139.195 52.7C139.435 52.52 139.915 52.16 140.635 51.62C141.415 51.08 142.165 50.57 142.885 50.09C143.665 49.55 144.145 49.28 144.325 49.28C144.625 49.28 144.775 49.43 144.775 49.73C144.775 49.97 144.385 50.48 143.605 51.26C142.825 51.98 141.985 52.7 141.085 53.42C140.185 54.14 139.585 54.65 139.285 54.95C139.285 56.63 138.865 58.61 138.025 60.89C137.245 63.11 136.165 65.27 134.785 67.37C133.405 69.47 131.815 71.21 130.015 72.59C128.215 73.97 126.355 74.66 124.435 74.66C123.415 74.66 122.905 74.18 122.905 73.22C122.905 72.02 123.415 70.55 124.435 68.81C125.515 67.07 126.805 65.27 128.305 63.41C129.865 61.55 131.395 59.87 132.895 58.37C134.395 56.81 135.625 55.64 136.585 54.86V54.23C136.705 51.65 135.895 49.55 134.155 47.93C132.415 46.31 130.495 44.96 128.395 43.88C126.535 50 124.975 56.42 123.715 63.14C122.455 69.8 121.825 76.34 121.825 82.76C121.825 83.42 121.855 84.56 121.915 86.18C121.975 87.86 122.125 89.6 122.365 91.4C122.665 93.26 123.085 94.85 123.625 96.17C124.225 97.49 125.035 98.15 126.055 98.15C126.835 98.15 127.525 97.79 128.125 97.07C128.725 96.35 129.265 95.63 129.745 94.91C130.225 94.19 130.615 93.83 130.915 93.83C131.155 93.83 131.275 94.04 131.275 94.46C131.275 95.12 130.945 95.9 130.285 96.8C129.625 97.76 128.845 98.57 127.945 99.23C127.045 99.89 126.265 100.22 125.605 100.22ZM125.155 72.59C126.415 72.59 127.645 72.05 128.845 70.97C130.045 69.83 131.125 68.45 132.085 66.83C133.105 65.15 133.975 63.5 134.695 61.88C135.415 60.26 135.895 58.97 136.135 58.01C135.775 58.37 135.145 59.06 134.245 60.08C133.405 61.04 132.445 62.18 131.365 63.5C130.285 64.76 129.235 66.02 128.215 67.28C127.255 68.48 126.445 69.56 125.785 70.52C125.125 71.48 124.795 72.11 124.795 72.41C124.795 72.53 124.915 72.59 125.155 72.59ZM151.864 78.17C150.244 78.17 148.954 77.54 147.994 76.28C147.034 74.96 146.344 73.37 145.924 71.51C145.504 69.59 145.234 67.7 145.114 65.84C144.994 63.98 144.934 62.51 144.934 61.43C144.934 55.37 145.624 49.25 147.004 43.07C147.664 40.19 148.294 37.67 148.894 35.51C149.554 33.35 150.244 31.34 150.964 29.48C151.684 27.62 152.494 25.7 153.394 23.72C154.354 21.74 155.434 19.49 156.634 16.97H156.364C156.004 16.97 155.704 16.82 155.464 16.52C155.284 16.16 155.194 15.83 155.194 15.53C155.194 14.81 155.644 14.21 156.544 13.73C157.444 13.25 158.194 13.01 158.794 13.01C160.054 13.01 161.014 13.58 161.674 14.72C162.334 15.8 162.784 17.06 163.024 18.5C163.264 19.88 163.384 21.05 163.384 22.01C163.384 23.21 163.294 24.44 163.114 25.7C162.694 28.7 161.944 31.91 160.864 35.33C159.844 38.75 158.524 42.02 156.904 45.14C155.344 48.2 153.424 50.84 151.144 53.06C150.724 53.42 150.184 53.87 149.524 54.41C148.924 54.89 148.294 55.13 147.634 55.13C147.454 57.17 147.364 59.27 147.364 61.43C147.364 62.21 147.394 63.38 147.454 64.94C147.574 66.44 147.784 68.03 148.084 69.71C148.444 71.33 148.954 72.74 149.614 73.94C150.334 75.08 151.264 75.65 152.404 75.65C153.664 75.65 154.864 74.99 156.004 73.67C157.204 72.29 158.314 70.61 159.334 68.63C160.354 66.59 161.284 64.58 162.124 62.6C162.964 60.56 163.654 58.88 164.194 57.56C164.794 56.18 165.214 55.46 165.454 55.4C165.634 55.64 165.724 56 165.724 56.48C165.724 57.5 165.454 58.88 164.914 60.62C164.374 62.36 163.624 64.25 162.664 66.29C161.764 68.27 160.714 70.19 159.514 72.05C158.314 73.85 157.054 75.32 155.734 76.46C154.474 77.6 153.184 78.17 151.864 78.17ZM147.814 53.33C149.194 52.97 150.514 51.83 151.774 49.91C153.094 47.99 154.294 45.65 155.374 42.89C156.454 40.13 157.384 37.31 158.164 34.43C159.004 31.49 159.634 28.82 160.054 26.42C160.534 23.96 160.774 22.13 160.774 20.93C160.774 20.33 160.714 19.58 160.594 18.68C160.474 17.72 160.024 17.12 159.244 16.88C159.184 17.12 159.034 17.3 158.794 17.42C158.614 17.54 158.464 17.66 158.344 17.78C157.624 18.56 156.814 20.06 155.914 22.28C155.014 24.5 154.114 27.11 153.214 30.11C152.374 33.11 151.564 36.14 150.784 39.2C150.004 42.26 149.344 45.08 148.804 47.66C148.264 50.18 147.934 52.07 147.814 53.33ZM169.676 77C168.056 77 166.796 76.28 165.896 74.84C165.056 73.4 164.486 71.66 164.186 69.62C163.886 67.52 163.736 65.57 163.736 63.77C163.736 62.93 163.736 62.18 163.736 61.52C163.796 60.8 163.856 60.2 163.916 59.72H163.646C162.926 59.72 162.566 59.45 162.566 58.91C162.686 58.61 162.896 58.37 163.196 58.19C163.556 57.95 163.886 57.8 164.186 57.74C164.486 55.1 165.056 52.4 165.896 49.64C166.736 46.88 167.876 44.39 169.316 42.17V41.63C169.316 41.03 169.676 40.67 170.396 40.55C170.696 40.25 170.996 39.92 171.296 39.56C171.656 39.14 172.046 38.93 172.466 38.93C172.946 38.93 173.306 39.14 173.546 39.56C173.846 39.92 173.876 40.31 173.636 40.73C174.776 40.97 175.796 41.45 176.696 42.17C177.656 42.83 178.136 43.82 178.136 45.14C178.136 46.88 177.476 48.68 176.156 50.54C174.896 52.34 173.366 53.99 171.566 55.49C169.826 56.93 168.236 58.01 166.796 58.73C166.616 60.17 166.496 61.64 166.436 63.14C166.436 64.58 166.436 66.02 166.436 67.46C166.436 68.18 166.466 69.08 166.526 70.16C166.646 71.24 166.916 72.2 167.336 73.04C167.816 73.88 168.596 74.3 169.676 74.3C170.816 74.3 171.926 73.79 173.006 72.77C174.146 71.75 175.226 70.46 176.246 68.9C177.326 67.28 178.316 65.6 179.216 63.86C180.116 62.12 180.896 60.47 181.556 58.91C182.216 57.35 182.696 56.15 182.996 55.31C183.116 55.01 183.266 54.74 183.446 54.5C183.626 54.2 183.896 54.05 184.256 54.05C184.736 54.05 184.976 54.35 184.976 54.95C184.976 55.91 184.646 57.29 183.986 59.09C183.326 60.83 182.426 62.72 181.286 64.76C180.206 66.8 178.976 68.75 177.596 70.61C176.276 72.47 174.926 74 173.546 75.2C172.166 76.4 170.876 77 169.676 77ZM167.246 55.94C168.386 55.22 169.526 54.32 170.666 53.24C171.806 52.16 172.766 50.93 173.546 49.55C174.326 48.17 174.716 46.79 174.716 45.41C174.716 44.69 174.356 44.18 173.636 43.88C172.916 43.52 172.286 43.31 171.746 43.25C170.606 45.11 169.646 47.15 168.866 49.37C168.146 51.59 167.606 53.78 167.246 55.94Z" fill="white"/>
</svg>
