<svg width="200" height="44" viewBox="0 0 200 44" fill="none" xmlns="http://www.w3.org/2000/svg">
<path d="M16.1974 19.6719L14.1136 20.2599C13.9091 19.6719 13.6193 19.1392 13.2443 18.6619C12.8693 18.1847 12.3793 17.8054 11.7741 17.5241C11.1776 17.2429 10.4361 17.1023 9.54972 17.1023C8.22017 17.1023 7.12926 17.4176 6.27699 18.0483C5.42472 18.679 4.99858 19.4929 4.99858 20.4901C4.99858 21.3338 5.28835 22.0199 5.8679 22.5483C6.45597 23.0682 7.35938 23.4815 8.57812 23.7884L11.544 24.517C13.1889 24.9176 14.4205 25.5526 15.2386 26.4219C16.0653 27.2912 16.4787 28.3821 16.4787 29.6946C16.4787 30.8026 16.1719 31.7869 15.5582 32.6477C14.9446 33.5085 14.0881 34.1861 12.9886 34.6804C11.8977 35.1662 10.6321 35.4091 9.19176 35.4091C7.27415 35.4091 5.69318 34.9787 4.44886 34.1179C3.20455 33.2486 2.40767 31.9957 2.05824 30.3594L4.24432 29.8224C4.52557 30.9901 5.07528 31.8722 5.89347 32.4688C6.72017 33.0653 7.80682 33.3636 9.15341 33.3636C10.6619 33.3636 11.8679 33.027 12.7713 32.3537C13.6747 31.6719 14.1264 30.8196 14.1264 29.7969C14.1264 29.0043 13.8622 28.3395 13.3338 27.8026C12.8054 27.2571 12.0043 26.8565 10.9304 26.6009L7.72159 25.8338C6.01705 25.4247 4.75568 24.777 3.9375 23.8906C3.11932 23.0043 2.71023 21.9048 2.71023 20.5923C2.71023 19.5099 3.00426 18.5597 3.59233 17.7415C4.1804 16.9148 4.99006 16.267 6.02131 15.7983C7.05256 15.3295 8.22869 15.0952 9.54972 15.0952C11.348 15.0952 12.7841 15.5043 13.858 16.3224C14.9403 17.1321 15.7202 18.2486 16.1974 19.6719ZM21.4869 35V15.3636H23.7752V35H21.4869ZM22.6502 11.9886C22.1815 11.9886 21.7809 11.831 21.4485 11.5156C21.1161 11.1918 20.9499 10.804 20.9499 10.3523C20.9499 9.90057 21.1161 9.51705 21.4485 9.2017C21.7809 8.87784 22.1815 8.71591 22.6502 8.71591C23.119 8.71591 23.5195 8.87784 23.8519 9.2017C24.1843 9.51705 24.3505 9.90057 24.3505 10.3523C24.3505 10.804 24.1843 11.1918 23.8519 11.5156C23.5195 11.831 23.119 11.9886 22.6502 11.9886ZM29.7933 35V15.3636H32.005V18.3807H32.2095C32.6016 17.3665 33.2536 16.5696 34.1655 15.9901C35.0859 15.402 36.1896 15.108 37.4766 15.108C38.8317 15.108 39.9439 15.4276 40.8132 16.0668C41.6911 16.6974 42.3473 17.5668 42.782 18.6747H42.9482C43.3913 17.5838 44.1115 16.7187 45.1087 16.0795C46.1143 15.4318 47.3331 15.108 48.7649 15.108C50.5888 15.108 52.0291 15.6832 53.0859 16.8338C54.1428 17.9759 54.6712 19.6463 54.6712 21.8452V35H52.3956V21.8452C52.3956 20.294 51.9993 19.1307 51.2067 18.3551C50.4141 17.5795 49.37 17.1918 48.0746 17.1918C46.5746 17.1918 45.4197 17.652 44.6101 18.5724C43.8004 19.4929 43.3956 20.6605 43.3956 22.0753V35H41.0689V21.6406C41.0689 20.3111 40.6982 19.2372 39.9567 18.419C39.2152 17.6009 38.1712 17.1918 36.8246 17.1918C35.9212 17.1918 35.1072 17.4134 34.3828 17.8565C33.6669 18.2997 33.1001 18.9176 32.6825 19.7102C32.2734 20.4943 32.0689 21.3977 32.0689 22.4205V35H29.7933ZM60.6957 42.3636V15.3636H62.9073V19.1094H63.1758C63.4485 18.5213 63.8235 17.9205 64.3008 17.3068C64.7781 16.6847 65.4087 16.1605 66.1928 15.7344C66.9854 15.3082 67.9826 15.0952 69.1843 15.0952C70.8036 15.0952 72.2184 15.5213 73.4286 16.3736C74.6474 17.2173 75.5934 18.402 76.2667 19.9276C76.9485 21.4446 77.2894 23.2131 77.2894 25.233C77.2894 27.2614 76.9485 29.0384 76.2667 30.5639C75.5934 32.0895 74.6474 33.2784 73.4286 34.1307C72.2184 34.983 70.8121 35.4091 69.2099 35.4091C68.0252 35.4091 67.0323 35.196 66.2312 34.7699C65.4386 34.3437 64.7951 33.8196 64.3008 33.1974C63.815 32.5668 63.44 31.9531 63.1758 31.3565H62.9712V42.3636H60.6957ZM62.9457 25.1946C62.9457 26.7798 63.18 28.1861 63.6488 29.4134C64.1261 30.6321 64.8079 31.5909 65.6942 32.2898C66.5891 32.9801 67.6715 33.3253 68.9414 33.3253C70.2454 33.3253 71.3448 32.9673 72.2397 32.2514C73.1431 31.527 73.8292 30.5511 74.2979 29.3239C74.7752 28.0966 75.0139 26.7202 75.0139 25.1946C75.0139 23.6861 74.7795 22.3267 74.3107 21.1165C73.8505 19.9062 73.1687 18.9474 72.2653 18.2401C71.3619 17.5241 70.2539 17.1662 68.9414 17.1662C67.663 17.1662 66.5763 17.5114 65.6815 18.2017C64.7866 18.8835 64.1048 19.8295 63.636 21.0398C63.1758 22.2415 62.9457 23.6264 62.9457 25.1946ZM84.5572 8.81818V35H82.2816V8.81818H84.5572ZM98.5174 35.4091C96.685 35.4091 95.0998 34.983 93.7617 34.1307C92.4237 33.2699 91.3881 32.081 90.6552 30.5639C89.9308 29.0384 89.5685 27.2827 89.5685 25.2969C89.5685 23.3196 89.9308 21.5639 90.6552 20.0298C91.3881 18.4872 92.3981 17.2812 93.685 16.4119C94.9805 15.5341 96.4762 15.0952 98.1722 15.0952C99.2376 15.0952 100.265 15.2912 101.253 15.6832C102.242 16.0668 103.128 16.6591 103.912 17.4602C104.705 18.2528 105.331 19.2543 105.792 20.4645C106.252 21.6662 106.482 23.0895 106.482 24.7344V25.8594H91.141V23.8523H104.155C104.155 22.5909 103.9 21.4574 103.388 20.4517C102.885 19.4375 102.182 18.6364 101.279 18.0483C100.384 17.4602 99.3484 17.1662 98.1722 17.1662C96.9279 17.1662 95.8327 17.4986 94.8867 18.1634C93.9407 18.8281 93.1992 19.706 92.6623 20.7969C92.1339 21.8878 91.8654 23.081 91.8569 24.3764V25.5781C91.8569 27.1378 92.1254 28.5014 92.6623 29.669C93.2077 30.8281 93.979 31.7273 94.9762 32.3665C95.9734 33.0057 97.1538 33.3253 98.5174 33.3253C99.4464 33.3253 100.26 33.1804 100.959 32.8906C101.667 32.6009 102.259 32.2131 102.736 31.7273C103.222 31.233 103.588 30.6918 103.836 30.1037L105.996 30.8068C105.698 31.6335 105.208 32.3963 104.526 33.0952C103.853 33.794 103.009 34.3565 101.995 34.7827C100.989 35.2003 99.8299 35.4091 98.5174 35.4091Z" fill="white"/>
<path d="M119.872 35.432C118.36 35.432 116.974 35.162 115.714 34.622C114.454 34.07 113.44 33.26 112.672 32.192C111.904 31.124 111.508 29.804 111.484 28.232H114.22C114.22 29.288 114.478 30.158 114.994 30.842C115.51 31.514 116.194 32.018 117.046 32.354C117.898 32.678 118.828 32.84 119.836 32.84C120.928 32.84 121.876 32.666 122.68 32.318C123.484 31.97 124.102 31.514 124.534 30.95C124.978 30.374 125.2 29.744 125.2 29.06C125.2 28.1 124.906 27.326 124.318 26.738C123.73 26.138 122.86 25.652 121.708 25.28L117.712 23.876C115.84 23.204 114.424 22.436 113.464 21.572C112.504 20.708 112.024 19.496 112.024 17.936C112.024 16.184 112.696 14.756 114.04 13.652C115.396 12.548 117.316 11.996 119.8 11.996C122.104 11.996 123.904 12.53 125.2 13.598C126.496 14.654 127.24 16.076 127.432 17.864H124.66C124.48 16.82 123.988 16.01 123.184 15.434C122.392 14.846 121.264 14.552 119.8 14.552C118.312 14.552 117.154 14.882 116.326 15.542C115.498 16.202 115.084 17.036 115.084 18.044C115.084 18.872 115.342 19.532 115.858 20.024C116.386 20.504 117.208 20.936 118.324 21.32L123.004 22.94C124.624 23.48 125.902 24.236 126.838 25.208C127.786 26.18 128.26 27.44 128.26 28.988C128.26 30.188 127.936 31.274 127.288 32.246C126.652 33.218 125.71 33.992 124.462 34.568C123.214 35.144 121.684 35.432 119.872 35.432ZM130.978 14.804V12.392H148.582V14.804H140.536L141.166 14.156V35H138.358V14.156L138.988 14.804H130.978ZM152.397 35V12.392H166.329V14.804H155.205V22.4H165.681V24.812H155.205V32.552H166.329V35H152.397ZM172.648 12.392H176.68L184.456 28.016H184.168L191.944 12.392H195.868V35H193.024V15.308H193.528L185.248 32.156H183.376L175.132 15.416H175.456V35H172.648V12.392Z" fill="white"/>
</svg>
 