<svg width="192" height="49" viewBox="0 0 192 49" fill="none" xmlns="http://www.w3.org/2000/svg">
<path d="M110.95 38.6354C108.661 38.6354 106.562 38.1903 104.655 37.3001C102.747 36.3901 101.212 35.0548 100.049 33.2941C98.8859 31.5335 98.2863 29.3574 98.25 26.7659H102.393C102.393 28.5067 102.783 29.941 103.565 31.0686C104.346 32.1764 105.381 33.0073 106.672 33.5612C107.962 34.0953 109.37 34.3624 110.896 34.3624C112.549 34.3624 113.985 34.0756 115.202 33.5018C116.419 32.9281 117.355 32.1764 118.009 31.2466C118.681 30.2971 119.018 29.2585 119.018 28.1309C119.018 26.5482 118.572 25.2723 117.682 24.3029C116.792 23.3138 115.475 22.5126 113.73 21.8994L107.68 19.5848C104.845 18.4769 102.702 17.2109 101.248 15.7865C99.7944 14.3622 99.0676 12.3641 99.0676 9.79239C99.0676 6.90413 100.085 4.55 102.12 2.73C104.173 0.910001 107.08 0 110.841 0C114.33 0 117.055 0.880327 119.018 2.64098C120.98 4.38185 122.106 6.72609 122.397 9.6737H118.2C117.927 7.95261 117.182 6.61729 115.965 5.66772C114.766 4.69838 113.058 4.2137 110.841 4.2137C108.588 4.2137 106.835 4.75771 105.581 5.84576C104.328 6.9338 103.701 8.3087 103.701 9.97044C103.701 11.3354 104.091 12.4235 104.873 13.2346C105.672 14.0258 106.917 14.738 108.607 15.3711L115.693 18.0417C118.145 18.932 120.081 20.1783 121.498 21.7807C122.933 23.383 123.651 25.4602 123.651 28.0122C123.651 29.9904 123.16 31.7808 122.179 33.3832C121.216 34.9855 119.79 36.2615 117.9 37.2111C116.011 38.1607 113.694 38.6354 110.95 38.6354Z" fill="white"/>
<path d="M115.062 4.62914V0.652832H141.717V4.62914H129.534L130.488 3.56088V37.9233H126.236V3.56088L127.19 4.62914H115.062Z" fill="white"/>
<path d="M156.839 0.652832H162.944L174.717 26.4098H174.281L186.055 0.652832H191.996V37.9233H187.69V5.46001H188.453L175.916 33.2348H173.082L160.6 5.63805H161.09V37.9233H156.839V0.652832Z" fill="white"/>
<path d="M135.76 37.9233V0.652832H156.854V4.62914H140.011V17.1515H155.873V21.1278H140.011V33.8876H156.854V37.9233H135.76Z" fill="white"/>
<path d="M3.9 38.8499C2.86667 38.8499 2 38.55 1.3 37.95C0.63333 37.3833 0.3 36.5667 0.3 35.5C0.3 35.2333 0.36667 34.8332 0.5 34.2999C0.66667 33.7332 0.86667 33.2167 1.1 32.75C1.36667 32.25 1.65 32 1.95 32C2.15 32 2.25 32.1333 2.25 32.4C2.25 32.7 2.08333 33.0832 1.75 33.5499C1.41667 33.9832 1.25 34.55 1.25 35.25C1.25 35.8833 1.43333 36.3667 1.8 36.7C2.16667 37.0333 2.65 37.2 3.25 37.2C4.78333 37.2 6.46667 36.8667 8.3 36.2C10.1667 35.5333 12 34.6499 13.8 33.5499C15.6 32.4499 17.2 31.2333 18.6 29.9C20.0333 28.5333 21.0667 27.15 21.7 25.75C21.9333 25.2833 22.05 24.85 22.05 24.45C22.05 23.7167 21.7333 23.2667 21.1 23.1C20.4667 22.9 19.8833 22.8 19.35 22.8C17.3167 22.8 15.1833 22.9167 12.95 23.15C10.7167 23.3833 8.48333 23.5 6.25 23.5C5.21667 23.5 4.21667 23.35 3.25 23.05C2.31667 22.75 1.53333 22.25 0.9 21.55C0.3 20.85 0 19.9 0 18.7C0 17.2333 0.46667 15.7667 1.4 14.3C2.33333 12.8333 3.5 11.45 4.9 10.15C6.33333 8.84995 7.81667 7.71661 9.35 6.74995C10.9167 5.74995 12.3 4.99995 13.5 4.49995C14.6667 4.03328 15.8167 3.64995 16.95 3.34995C18.1167 3.04995 19.3167 2.89995 20.55 2.89995H21.25C22.4833 2.89995 23.7 3.08328 24.9 3.44995C26.1 3.81661 27.1 4.43328 27.9 5.29995C28.7 6.13328 29.1 7.26662 29.1 8.69995C29.1 8.96662 29.05 9.41661 28.95 10.05C28.8833 10.65 28.75 11.2167 28.55 11.75C28.35 12.25 28.0667 12.5 27.7 12.5C27.5333 12.5 27.45 12.4 27.45 12.2C27.45 11.7667 27.5333 11.3333 27.7 10.9C27.8667 10.4667 27.95 10.0333 27.95 9.59995C27.95 8.39995 27.6 7.41662 26.9 6.64995C26.2 5.88328 25.3333 5.31662 24.3 4.94995C23.2667 4.58328 22.2167 4.39995 21.15 4.39995C19.8167 4.39995 18.3167 4.64995 16.65 5.14995C14.9833 5.64995 13.3167 6.34995 11.65 7.24995C9.9833 8.14995 8.43333 9.21661 7 10.45C5.6 11.65 4.46667 12.95 3.6 14.35C2.73333 15.75 2.3 17.2 2.3 18.7C2.3 19.4333 2.51667 20.0667 2.95 20.6C3.41667 21.1 3.98333 21.4833 4.65 21.75C5.35 22.0167 6.01667 22.15 6.65 22.15C8.88333 22.15 11.0833 21.9833 13.25 21.65C15.45 21.2833 17.6333 21.1 19.8 21.1C20.4333 21.1 21.0667 21.1833 21.7 21.35C22.3333 21.4833 22.85 21.7667 23.25 22.2C23.6833 22.6 23.9 23.1833 23.9 23.95C23.9 25.35 23.4167 26.7667 22.45 28.2C21.4833 29.6 20.2333 30.95 18.7 32.25C17.1667 33.5167 15.4833 34.65 13.65 35.65C11.85 36.65 10.0833 37.4333 8.35 38C6.65 38.5667 5.16667 38.8499 3.9 38.8499ZM32.2363 16.35C32.003 16.35 31.7863 16.3 31.5863 16.2C31.3863 16.0667 31.2863 15.8833 31.2863 15.65C31.2863 15.3833 31.403 14.9833 31.6363 14.45C31.8697 13.8833 32.1697 13.3167 32.5363 12.75C32.903 12.1833 33.2863 11.7 33.6863 11.3C34.1197 10.9 34.503 10.7 34.8363 10.7C35.103 10.7 35.2363 10.8667 35.2363 11.2C35.2363 11.6 35.0197 11.9167 34.5863 12.15C34.3197 12.3167 34.0863 12.6333 33.8863 13.1C33.7197 13.5667 33.5697 14.05 33.4363 14.55C33.3363 15.05 33.2363 15.45 33.1363 15.75C33.0363 16.15 32.7363 16.35 32.2363 16.35ZM31.2363 35.5C30.4697 35.5 29.903 35.1832 29.5363 34.5499C29.1697 33.8832 28.9363 33.1333 28.8363 32.3C28.7363 31.4333 28.6863 30.7333 28.6863 30.2C28.6863 29.8667 28.7197 29.25 28.7863 28.35C28.8863 27.45 29.003 26.45 29.1363 25.35C29.303 24.2167 29.4863 23.1167 29.6863 22.05C29.9197 20.9833 30.1863 20.1 30.4863 19.4C30.7863 18.7 31.103 18.35 31.4363 18.35C31.703 18.35 31.9363 18.4333 32.1363 18.6C32.3363 18.7667 32.4363 18.9833 32.4363 19.25C32.4363 19.65 32.3197 20.2833 32.0863 21.15C31.853 22.0167 31.5697 23 31.2363 24.1C30.9363 25.2 30.653 26.3167 30.3863 27.45C30.153 28.55 30.0363 29.55 30.0363 30.45C30.0363 30.6833 30.053 31.0833 30.0863 31.65C30.153 32.2167 30.2697 32.75 30.4363 33.25C30.603 33.7167 30.8697 33.95 31.2363 33.95C31.7363 33.95 32.2863 33.5832 32.8863 32.8499C33.4863 32.1166 34.0863 31.2167 34.6863 30.15C35.3197 29.05 35.903 27.9667 36.4363 26.9C36.9697 25.8 37.4197 24.8833 37.7863 24.15C38.153 23.4167 38.403 23.05 38.5363 23.05C38.703 23.05 38.803 23.1167 38.8363 23.25C38.903 23.35 38.9363 23.4667 38.9363 23.6C38.9363 24.0333 38.753 24.7333 38.3863 25.7C38.0197 26.6333 37.5363 27.6667 36.9363 28.8C36.3363 29.9 35.6863 30.9667 34.9863 32C34.2863 33 33.603 33.8333 32.9363 34.5C32.2697 35.1667 31.703 35.5 31.2363 35.5ZM38.3625 36.7C38.0625 36.7 37.8625 36.6 37.7625 36.4C37.6625 36.2 37.6125 35.9833 37.6125 35.75V35.65C37.6125 33.85 37.7458 32.1667 38.0125 30.6C38.2792 29.0333 38.5292 27.45 38.7625 25.85C39.0292 24.2167 39.1625 22.4333 39.1625 20.5C39.1625 19.9667 39.1292 19.35 39.0625 18.65C39.0292 17.9167 38.9125 17.2 38.7125 16.5C38.5458 15.8 38.2792 15.25 37.9125 14.85C37.7792 14.7167 37.7125 14.55 37.7125 14.35C37.7125 14.05 37.8458 13.7833 38.1125 13.55C38.3792 13.3167 38.6625 13.1833 38.9625 13.15L39.4125 13.35C39.8125 13.7167 40.0958 14.3667 40.2625 15.3C40.4292 16.2 40.5292 17.1167 40.5625 18.05C40.5958 18.9833 40.6125 19.7167 40.6125 20.25C40.6125 20.9833 40.5958 21.7167 40.5625 22.45C40.5292 23.1833 40.4792 23.9333 40.4125 24.7C40.5792 24.2667 40.8125 23.7167 41.1125 23.05C41.4125 22.35 41.7625 21.6667 42.1625 21C42.5958 20.3 43.0458 19.7167 43.5125 19.25C44.0125 18.7833 44.5458 18.55 45.1125 18.55C45.6792 18.55 46.1125 18.8667 46.4125 19.5C46.7125 20.1 46.9125 20.85 47.0125 21.75C47.1458 22.65 47.2292 23.5167 47.2625 24.35C47.2958 25.15 47.3125 25.75 47.3125 26.15C47.5125 25.65 47.8292 24.9333 48.2625 24C48.7292 23.0667 49.2625 22.05 49.8625 20.95C50.4958 19.85 51.1625 18.8 51.8625 17.8C52.5625 16.8 53.2458 15.9833 53.9125 15.35C54.5792 14.6833 55.1958 14.35 55.7625 14.35C56.2292 14.35 56.5125 14.6 56.6125 15.1C56.7458 15.6 56.8125 16.0167 56.8125 16.35C56.8125 17.6833 56.6792 19.0333 56.4125 20.4C56.1792 21.7667 55.9292 23.15 55.6625 24.55C55.4292 25.95 55.3125 27.3667 55.3125 28.8C55.3125 28.9667 55.3125 29.3333 55.3125 29.9C55.3458 30.4667 55.4125 31 55.5125 31.5C55.6458 31.9667 55.8625 32.2 56.1625 32.2C56.6625 32.2 57.1792 31.95 57.7125 31.45C58.2458 30.95 58.7292 30.3833 59.1625 29.75C59.6292 29.0833 60.0125 28.5 60.3125 28C60.6458 27.4667 60.8625 27.2 60.9625 27.2C61.0958 27.3333 61.1625 27.5 61.1625 27.7C61.1625 28.0333 60.9792 28.5333 60.6125 29.2C60.2458 29.8667 59.7792 30.55 59.2125 31.25C58.6792 31.95 58.1292 32.5499 57.5625 33.0499C56.9958 33.5166 56.5292 33.75 56.1625 33.75C55.5292 33.75 55.0292 33.4332 54.6625 32.7999C54.3292 32.1666 54.0958 31.45 53.9625 30.65C53.8625 29.85 53.8125 29.2333 53.8125 28.8C53.8125 27.5 53.8958 26.2167 54.0625 24.95C54.2292 23.65 54.4292 22.3667 54.6625 21.1C54.7958 20.4333 54.9625 19.7333 55.1625 19C55.3958 18.2667 55.5125 17.5667 55.5125 16.9C55.5125 16.7 55.4458 16.5 55.3125 16.3L55.2125 16.25C55.0125 16.25 54.7458 16.45 54.4125 16.85C54.0792 17.2167 53.7625 17.6167 53.4625 18.05C53.1958 18.4833 52.9958 18.7833 52.8625 18.95C51.5958 20.75 50.5792 22.6167 49.8125 24.55C49.0458 26.45 48.1792 28.3833 47.2125 30.35C47.1458 30.4833 47.0458 30.6167 46.9125 30.75C46.8125 30.8833 46.6792 30.95 46.5125 30.95C46.1792 30.95 45.9458 30.6333 45.8125 30C45.7125 29.3333 45.6625 28.5833 45.6625 27.75C45.6625 26.9833 45.6792 26.2667 45.7125 25.6C45.7792 24.9 45.8125 24.4167 45.8125 24.15C45.8125 24.0167 45.7958 23.7333 45.7625 23.3C45.7625 22.8667 45.7292 22.4 45.6625 21.9C45.6292 21.4 45.5625 20.9667 45.4625 20.6C45.3958 20.2333 45.2792 20.05 45.1125 20.05C44.7792 20.05 44.5125 20.1833 44.3125 20.45C44.1458 20.7167 43.9792 20.9833 43.8125 21.25C42.8458 22.8833 42.0625 24.5667 41.4625 26.3C40.9292 27.9 40.5458 29.55 40.3125 31.25C40.0792 32.9167 39.6792 34.5332 39.1125 36.0999C39.0125 36.4999 38.7625 36.7 38.3625 36.7ZM64.9195 48.9C64.2862 48.9 63.7529 48.6166 63.3195 48.0499C62.8862 47.4832 62.5529 46.7499 62.3195 45.8499C62.0862 44.9832 61.9029 44.0666 61.7695 43.0999C61.6695 42.1666 61.6029 41.2833 61.5695 40.45C61.5362 39.65 61.5195 39.0332 61.5195 38.5999C61.5195 36.2999 61.6862 33.9333 62.0195 31.5C62.3529 29.0667 62.7862 26.65 63.3195 24.25C63.8529 21.8167 64.4195 19.5167 65.0195 17.35C64.7529 17.2833 64.5529 17.1 64.4195 16.8C64.3195 16.4667 64.2695 16.1833 64.2695 15.95C64.2695 15.35 64.4695 15.05 64.8695 15.05C65.1029 15.05 65.3695 15.1 65.6695 15.2C65.7695 14.9667 65.8695 14.7167 65.9695 14.45C66.1029 14.15 66.3195 14 66.6195 14C66.8195 14 67.0029 14.0667 67.1695 14.2C67.3362 14.3333 67.4195 14.5167 67.4195 14.75C67.4195 14.8833 67.3695 15.0667 67.2695 15.3C67.2029 15.5 67.1362 15.6667 67.0695 15.8C68.3362 16.5333 69.5029 17.45 70.5695 18.55C71.6695 19.6167 72.3029 20.9333 72.4695 22.5C72.6029 22.4 72.8695 22.2 73.2695 21.9C73.7029 21.6 74.1195 21.3167 74.5195 21.05C74.9529 20.75 75.2195 20.6 75.3195 20.6C75.4862 20.6 75.5695 20.6833 75.5695 20.85C75.5695 20.9833 75.3529 21.2667 74.9195 21.7C74.4862 22.1 74.0195 22.5 73.5195 22.9C73.0195 23.3 72.6862 23.5833 72.5195 23.75C72.5195 24.6833 72.2862 25.7833 71.8195 27.05C71.3862 28.2833 70.7862 29.4833 70.0195 30.65C69.2529 31.8167 68.3695 32.7832 67.3695 33.5499C66.3695 34.3166 65.3362 34.7 64.2695 34.7C63.7029 34.7 63.4195 34.4333 63.4195 33.9C63.4195 33.2333 63.7029 32.4167 64.2695 31.45C64.8695 30.4833 65.5862 29.4833 66.4195 28.45C67.2862 27.4167 68.1362 26.4833 68.9695 25.65C69.8029 24.7833 70.4862 24.1333 71.0195 23.7V23.35C71.0862 21.9167 70.6362 20.75 69.6695 19.85C68.7029 18.95 67.6362 18.2 66.4695 17.6C65.4362 21 64.5695 24.5667 63.8695 28.3C63.1695 32 62.8195 35.6333 62.8195 39.2C62.8195 39.5667 62.8362 40.1999 62.8695 41.0999C62.9029 42.0332 62.9862 43 63.1195 44C63.2862 45.0333 63.5195 45.9167 63.8195 46.65C64.1529 47.3833 64.6029 47.75 65.1695 47.75C65.6029 47.75 65.9862 47.55 66.3195 47.15C66.6529 46.75 66.9529 46.35 67.2195 45.95C67.4862 45.55 67.7029 45.3499 67.8695 45.3499C68.0029 45.3499 68.0695 45.4667 68.0695 45.7C68.0695 46.0667 67.8862 46.5 67.5195 47C67.1529 47.5333 66.7195 47.9832 66.2195 48.3499C65.7195 48.7166 65.2862 48.9 64.9195 48.9ZM64.6695 33.5499C65.3695 33.5499 66.0529 33.25 66.7195 32.65C67.3862 32.0167 67.9862 31.25 68.5195 30.35C69.0862 29.4167 69.5695 28.5 69.9695 27.6C70.3695 26.7 70.6362 25.9833 70.7695 25.45C70.5695 25.65 70.2195 26.0333 69.7195 26.6C69.2529 27.1333 68.7195 27.7667 68.1195 28.5C67.5195 29.2 66.9362 29.9 66.3695 30.6C65.8362 31.2667 65.3862 31.8667 65.0195 32.4C64.6529 32.9333 64.4695 33.2833 64.4695 33.45C64.4695 33.5167 64.5362 33.5499 64.6695 33.5499ZM79.5078 36.65C78.6078 36.65 77.8911 36.2999 77.3578 35.5999C76.8245 34.8666 76.4411 33.9833 76.2078 32.95C75.9745 31.8833 75.8245 30.8333 75.7578 29.8C75.6911 28.7667 75.6578 27.95 75.6578 27.35C75.6578 23.9833 76.0411 20.5833 76.8078 17.15C77.1745 15.55 77.5245 14.15 77.8578 12.95C78.2245 11.75 78.6078 10.6333 79.0078 9.59995C79.4078 8.56662 79.8578 7.49995 80.3578 6.39995C80.8911 5.29995 81.4911 4.04995 82.1578 2.64995H82.0078C81.8078 2.64995 81.6411 2.56661 81.5078 2.39995C81.4078 2.19995 81.3578 2.01662 81.3578 1.84995C81.3578 1.44995 81.6078 1.11661 82.1078 0.849952C82.6078 0.583284 83.0245 0.449951 83.3578 0.449951C84.0578 0.449951 84.5911 0.766617 84.9578 1.39995C85.3245 1.99995 85.5745 2.69995 85.7078 3.49995C85.8411 4.26661 85.9078 4.91662 85.9078 5.44995C85.9078 6.11662 85.8578 6.79995 85.7578 7.49995C85.5245 9.16661 85.1078 10.95 84.5078 12.85C83.9411 14.75 83.2078 16.5667 82.3078 18.3C81.4411 20 80.3745 21.4667 79.1078 22.7C78.8745 22.9 78.5745 23.15 78.2078 23.45C77.8745 23.7167 77.5245 23.85 77.1578 23.85C77.0578 24.9833 77.0078 26.15 77.0078 27.35C77.0078 27.7833 77.0245 28.4333 77.0578 29.3C77.1245 30.1333 77.2411 31.0167 77.4078 31.95C77.6078 32.85 77.8911 33.6332 78.2578 34.2999C78.6578 34.9332 79.1745 35.25 79.8078 35.25C80.5078 35.25 81.1745 34.8833 81.8078 34.15C82.4745 33.3833 83.0911 32.45 83.6578 31.35C84.2245 30.2167 84.7411 29.1 85.2078 28C85.6745 26.8667 86.0578 25.9333 86.3578 25.2C86.6911 24.4333 86.9245 24.0333 87.0578 24C87.1578 24.1333 87.2078 24.3333 87.2078 24.6C87.2078 25.1667 87.0578 25.9333 86.7578 26.9C86.4578 27.8667 86.0411 28.9167 85.5078 30.05C85.0078 31.15 84.4245 32.2167 83.7578 33.25C83.0911 34.25 82.3911 35.0667 81.6578 35.7C80.9578 36.3333 80.2411 36.65 79.5078 36.65ZM77.2578 22.85C78.0245 22.65 78.7578 22.0167 79.4578 20.95C80.1911 19.8833 80.8578 18.5833 81.4578 17.05C82.0578 15.5167 82.5745 13.95 83.0078 12.35C83.4745 10.7167 83.8245 9.23328 84.0578 7.89995C84.3245 6.53328 84.4578 5.51661 84.4578 4.84995C84.4578 4.51662 84.4245 4.09995 84.3578 3.59995C84.2911 3.06662 84.0411 2.73328 83.6078 2.59995C83.5745 2.73328 83.4911 2.83328 83.3578 2.89995C83.2578 2.96661 83.1745 3.03328 83.1078 3.09995C82.7078 3.53328 82.2578 4.36661 81.7578 5.59995C81.2578 6.83328 80.7578 8.28328 80.2578 9.94995C79.7911 11.6167 79.3411 13.3 78.9078 15C78.4745 16.7 78.1078 18.2667 77.8078 19.7C77.5078 21.1 77.3245 22.15 77.2578 22.85ZM89.4035 36C88.5035 36 87.8035 35.5999 87.3035 34.7999C86.8368 33.9999 86.5202 33.0333 86.3535 31.9C86.1868 30.7333 86.1035 29.65 86.1035 28.65C86.1035 28.1833 86.1035 27.7667 86.1035 27.4C86.1368 27 86.1702 26.6667 86.2035 26.4H86.0535C85.6535 26.4 85.4535 26.25 85.4535 25.95C85.5202 25.7833 85.6368 25.65 85.8035 25.55C86.0035 25.4167 86.1868 25.3333 86.3535 25.3C86.5202 23.8333 86.8368 22.3333 87.3035 20.8C87.7702 19.2667 88.4035 17.8833 89.2035 16.65V16.35C89.2035 16.0167 89.4035 15.8167 89.8035 15.75C89.9702 15.5833 90.1368 15.4 90.3035 15.2C90.5035 14.9667 90.7202 14.85 90.9535 14.85C91.2202 14.85 91.4202 14.9667 91.5535 15.2C91.7202 15.4 91.7368 15.6167 91.6035 15.85C92.2368 15.9833 92.8035 16.25 93.3035 16.65C93.8368 17.0167 94.1035 17.5667 94.1035 18.3C94.1035 19.2667 93.7368 20.2667 93.0035 21.3C92.3035 22.3 91.4535 23.2167 90.4535 24.05C89.4868 24.85 88.6035 25.45 87.8035 25.85C87.7035 26.65 87.6368 27.4667 87.6035 28.3C87.6035 29.1 87.6035 29.9 87.6035 30.7C87.6035 31.1 87.6202 31.6 87.6535 32.2C87.7202 32.8 87.8702 33.3332 88.1035 33.7999C88.3702 34.2666 88.8035 34.5 89.4035 34.5C90.0368 34.5 90.6535 34.2167 91.2535 33.65C91.8868 33.0833 92.4868 32.3667 93.0535 31.5C93.6535 30.6 94.2035 29.6667 94.7035 28.7C95.2035 27.7333 95.6368 26.8167 96.0035 25.95C96.3702 25.0833 96.6368 24.4167 96.8035 23.95C96.8702 23.7833 96.9535 23.6333 97.0535 23.5C97.1535 23.3333 97.3035 23.25 97.5035 23.25C97.7702 23.25 97.9035 23.4167 97.9035 23.75C97.9035 24.2833 97.7202 25.05 97.3535 26.05C96.9868 27.0167 96.4868 28.0667 95.8535 29.2C95.2535 30.3333 94.5702 31.4167 93.8035 32.45C93.0702 33.4833 92.3202 34.3333 91.5535 35C90.7868 35.6667 90.0702 36 89.4035 36ZM88.0535 24.3C88.6868 23.9 89.3202 23.4 89.9535 22.8C90.5868 22.2 91.1202 21.5167 91.5535 20.75C91.9868 19.9833 92.2035 19.2167 92.2035 18.45C92.2035 18.05 92.0035 17.7667 91.6035 17.6C91.2035 17.4 90.8535 17.2833 90.5535 17.25C89.9202 18.2833 89.3868 19.4167 88.9535 20.65C88.5535 21.8833 88.2535 23.1 88.0535 24.3Z" fill="white"/>
</svg>
