<svg width="20" height="19" viewBox="0 0 20 19" fill="none" xmlns="http://www.w3.org/2000/svg">
<path d="M9.9398 17.7961C4.91915 17.7961 0.831543 13.8028 0.831543 8.89805C0.831543 3.99327 4.91915 0 9.9398 0C14.9605 0 19.0481 3.99327 19.0481 8.89805C19.0481 13.8028 14.9605 17.7961 9.9398 17.7961ZM9.9398 1.30215C5.64781 1.30215 2.16446 4.7138 2.16446 8.89805C2.16446 13.0823 5.64781 16.494 9.9398 16.494C14.2318 16.494 17.7151 13.0823 17.7151 8.89805C17.7151 4.7138 14.2318 1.30215 9.9398 1.30215Z" fill="#292D32"/>
<path d="M19.2706 18.6641C19.1017 18.6641 18.9329 18.6034 18.7996 18.4731L17.0224 16.7369C16.7647 16.4852 16.7647 16.0685 17.0224 15.8167C17.2801 15.565 17.7066 15.565 17.9643 15.8167L19.7415 17.5529C19.9992 17.8047 19.9992 18.2214 19.7415 18.4731C19.6082 18.6034 19.4394 18.6641 19.2706 18.6641Z" fill="#292D32"/>
</svg>
